<svg xmlns="http://www.w3.org/2000/svg" xmlns:xlink="http://www.w3.org/1999/xlink" x="0" y="0" viewBox="0 0 762 836" style="enable-background:new 0 0 762 836"><linearGradient id="bg_00000034062888612781402760000011304301131160712351_" gradientUnits="userSpaceOnUse" x1="0" y1="418" x2="762" y2="418"><stop offset=".04" style="stop-color:#fff"/><stop offset=".07" style="stop-color:#fffefa"/><stop offset=".17" style="stop-color:#fffbe9"/><stop offset=".3" style="stop-color:#fff9de"/><stop offset=".49" style="stop-color:#fff8d7"/><stop offset="1" style="stop-color:#fff8d5"/></linearGradient><path id="bg" style="fill:url(#bg_00000034062888612781402760000011304301131160712351_)" d="M0 0h762v836H0z"/><g id="_x31_"><image style="overflow:visible;opacity:.5" width="2527" height="3635" xlink:href="90E5A59D.png" transform="matrix(.24 0 0 .24 168.8 -13.05)"/><linearGradient id="SVGID_1_" gradientUnits="userSpaceOnUse" x1="477" y1="0" x2="477" y2="836"><stop offset="0" style="stop-color:#fff2ab"/><stop offset=".36" style="stop-color:#fff2ad"/><stop offset=".54" style="stop-color:#fff4b5"/><stop offset=".69" style="stop-color:#fff6c3"/><stop offset=".82" style="stop-color:#fff9d6"/><stop offset=".94" style="stop-color:#fffcef"/><stop offset="1" style="stop-color:#fff"/></linearGradient><path d="M280.5 293c6.3 83.9-53.6 155.9-43.3 238.8 5.2 41.9 27.7 74.1 33.2 115.9 6.1 46.2-9.9 92.4-28 129.6-9.5 19.5-19.9 38.4-28.9 58.6H762V0H197c-7.8 37-6.6 79 4.5 113.8 21.3 66 73.4 105.6 79 179.2z" style="fill:url(#SVGID_1_)"/></g><g id="_x32_"><image style="overflow:visible;opacity:.5" width="2027" height="3635" xlink:href="90E5A59F.png" transform="matrix(.24 0 0 .24 288.8 -13.05)"/><linearGradient id="SVGID_00000130636097845931270630000007841403515257339051_" gradientUnits="userSpaceOnUse" x1="537" y1="0" x2="537" y2="836"><stop offset="0" style="stop-color:#ffeb80"/><stop offset=".32" style="stop-color:#ffeb82"/><stop offset=".48" style="stop-color:#ffed8a"/><stop offset=".62" style="stop-color:#ffef98"/><stop offset=".73" style="stop-color:#fff2ab"/><stop offset=".83" style="stop-color:#fff6c4"/><stop offset=".93" style="stop-color:#fffae2"/><stop offset="1" style="stop-color:#fff"/></linearGradient><path style="fill:url(#SVGID_00000130636097845931270630000007841403515257339051_)" d="M386.9 697c-4.6 49.1-19.6 93.6-32.6 139H762V0H370.6c-46.6 83.4-68.9 202.5-54.1 312.4 17.9 132.1 83 251 70.4 384.6z"/></g><g id="_x33_"><image style="overflow:visible;opacity:.5" width="1744" height="3635" xlink:href="90E5A59E.png" transform="matrix(.24 0 0 .24 356.71 -13.05)"/><linearGradient id="SVGID_00000101099725407683347440000005139159146467018929_" gradientUnits="userSpaceOnUse" x1="571" y1="0" x2="571" y2="836"><stop offset="0" style="stop-color:#ffeb80"/><stop offset=".32" style="stop-color:#ffeb82"/><stop offset=".48" style="stop-color:#ffed8a"/><stop offset=".62" style="stop-color:#ffef98"/><stop offset=".73" style="stop-color:#fff2ab"/><stop offset=".83" style="stop-color:#fff6c4"/><stop offset=".93" style="stop-color:#fffae2"/><stop offset="1" style="stop-color:#fff"/></linearGradient><path style="fill:url(#SVGID_00000101099725407683347440000005139159146467018929_)" d="M401.3 423.8c11.7 22.8 25.6 39.1 39.5 55.5 13.8 16.5 27.5 33.2 38.7 56.8 24.4 63.5 0 135.1-16.2 195.3-10.6 38.2-11.7 73.3-6.2 104.6h305V0h-243c-1.3 43.2-5.8 85-27.5 114.7-40.6 52.1-93.4 91.1-107.4 173.3-4.2 22.7-5.5 46.3-3 69.4 2.6 23.1 8.9 45.7 20.1 66.4z"/></g><g id="_x34_"><image style="overflow:visible;opacity:.5" width="1194" height="3635" xlink:href="90E5A593.png" transform="matrix(.24 0 0 .24 488.71 -13.05)"/><linearGradient id="SVGID_00000080197547373871404470000006329611087088523674_" gradientUnits="userSpaceOnUse" x1="637" y1="0" x2="637" y2="836"><stop offset="0" style="stop-color:#ffde2b;stop-opacity:.7"/><stop offset=".27" style="stop-color:#ffde2d;stop-opacity:.7816"/><stop offset=".42" style="stop-color:#ffe035;stop-opacity:.8251"/><stop offset=".53" style="stop-color:#ffe243;stop-opacity:.8596"/><stop offset=".63" style="stop-color:#ffe556;stop-opacity:.8894"/><stop offset=".72" style="stop-color:#ffe96f;stop-opacity:.9161"/><stop offset=".8" style="stop-color:#ffed8e;stop-opacity:.9407"/><stop offset=".88" style="stop-color:#fff3b2;stop-opacity:.9636"/><stop offset=".95" style="stop-color:#fff9dc;stop-opacity:.9846"/><stop offset="1" style="stop-color:#fff"/></linearGradient><path style="fill:url(#SVGID_00000080197547373871404470000006329611087088523674_)" d="M540.6 525.9C525.9 543.5 511 571.2 512 606c1.5 50.7 34.3 74.5 40.7 123.6 4.7 36.3-6.6 70.8-13.9 106.4H762V0H568.6c-1.4 2-2.8 4-4.1 6.1-31.1 47.8-51.7 134-38.2 208.7 8.1 44.7 26.5 77.4 40.6 115.2 14.1 37.8 24.3 90.3 13.3 132.3-8 30.8-24.9 46-39.6 63.6z"/></g><g id="_x35_"><image style="overflow:visible;opacity:.5" width="872" height="3634" xlink:href="90E5A594.png" transform="matrix(.24 0 0 .24 565.8 -13)"/><linearGradient id="SVGID_00000092437309712961571330000004607531948341623681_" gradientUnits="userSpaceOnUse" x1="675.5" y1="0" x2="675.5" y2="836"><stop offset="0" style="stop-color:gold"/><stop offset=".26" style="stop-color:#ffd702"/><stop offset=".4" style="stop-color:#ffd90a"/><stop offset=".5" style="stop-color:#ffdb18"/><stop offset=".6" style="stop-color:#ffde2b"/><stop offset=".68" style="stop-color:#ffe244"/><stop offset=".76" style="stop-color:#ffe663"/><stop offset=".83" style="stop-color:#ffec87"/><stop offset=".9" style="stop-color:#fff3b2"/><stop offset=".96" style="stop-color:#fffae0"/><stop offset="1" style="stop-color:#fff"/></linearGradient><path style="fill:url(#SVGID_00000092437309712961571330000004607531948341623681_)" d="M626.8 352.7c16.1 23.9 32.3 55 29.1 89.8-4.9 52.4-49.6 73.5-58.7 124.4-9.8 54.9 26.9 106.8 23.9 163.6-2 38.2-21.7 70.8-30.5 105.5H762V0H616c12.3 50.2 12.2 108.4-1.9 157.6-10.4 36.4-28.1 71.5-24.7 111.1 3 34.8 21.3 60.1 37.4 84z"/></g></svg>