<svg xmlns="http://www.w3.org/2000/svg" viewBox="0 0 342.41 189.98"><path fill="white" d="M256 247.95c10.48 0 19 2.67 19 6s-8.5 6-19 6-19-2.66-19-6 8.49-6 19-6m-41.5-53.43a6 6 0 0 0 1.5-.21l17.23 58.57c1.92 6.54 11.44 11.49 22.89 11.49s21-5 22.89-11.49l17.21-58.52a6.05 6.05 0 1 0-4.74-5.91 6 6 0 0 0 3.44 5.46l-20 42.78 3.26-57.69h.14a6 6 0 1 0-1.69-.24l-13.28 56.34-6.35-62.04a6.07 6.07 0 1 0-1.7 0l-6.39 62-13.25-56.22a6 6 0 1 0-1.66.16h.08l3.21 57.62-20-42.83a6 6 0 1 0-2.77.68" transform="translate(-84.79 -161.01)"/><path fill="white" d="M117.4 176.87a15.44 15.44 0 0 1-3.62 3.83 13.4 13.4 0 0 1-7.79 3 15.57 15.57 0 0 1-3.33 0 13.39 13.39 0 0 1-7.79-3 15.21 15.21 0 0 1-3.62-3.83 30.71 30.71 0 0 1-5.3-17.86 31.21 31.21 0 0 1 4.72-17 15.37 15.37 0 0 1 7.34-6.59h.07l.46-.17a10.73 10.73 0 0 1 1.27-.45 16.13 16.13 0 0 1 9 0 12.87 12.87 0 0 1 1.27.44l.46.18h.07a15.43 15.43 0 0 1 7.34 6.59 31.19 31.19 0 0 1 4.72 17 30.65 30.65 0 0 1-5.31 17.86m-13.07-48.95c-17.36 0-31.45 14.1-31.45 31s14.08 31 31.45 31 31.45-14.09 31.45-31-14.08-31-31.45-31M198.08 165.41h-4.37v8.75a9.69 9.69 0 0 1-9.68 9.45h-18.44v-49.13h8.43v-4.38h-30.39v4.38h8.44v49.14h-8.44v4.37h54.47v-14.3ZM264.51 130.12h-57.3v4.38h8.27v49.15h-8.27v4.34h57.6v-20.8h-4.38v6.9a9.69 9.69 0 0 1-9.69 9.57h-21.7v-24.4h6.95a7.15 7.15 0 0 1 7.09 7.15V169.77h4v-24.23h-4v2.97a6.83 6.83 0 0 1-7.1 6.76h-6.95V134.5h21.74a9.69 9.69 0 0 1 9.64 9.57v5.92h4.38v-19.9ZM339.6 183.83c-4.2-.11-5.19-1.41-8.44-5.13l-19.17-23.86 12.68-15.14c3.41-3.9 4.35-5.23 8.72-5.31h3.3v-4.23h-23.35v4.23h5.15a2 2 0 0 1 2 2 1.94 1.94 0 0 1-.38 1.15l-11.24 13.45-8.83-11-1.83-2.35a2 2 0 0 1 1.53-3.23h5v-4.23h-29.22v4.23h1.39c3.73.18 4.8 1.45 7.74 4.8l17 21.11-15.27 18.24c-3.41 3.89-4.34 5.23-8.74 5.31h-3.57v4.22h25v-4.22h-6.16a2 2 0 0 1-1.54-3.24l13.56-16.2 11.28 14 1.71 2.15a2 2 0 0 1-1.55 3.23h-5.41v4.22h31.5v-4.22ZM35.95 155.54h-14.1v-21.18h14.09c6.07.24 10.91 4.45 10.91 10.58s-4.84 10.34-10.9 10.6m27 28-3.83-11.13c-1.79-5-3.06-7.17-5.86-9.74a16.24 16.24 0 0 0-6.32-3 14.93 14.93 0 0 0-2.38-29.68H.16v4.34H8.3v49.2H0v4.46h30.14v-4.38h-8.32v-23.62h8.39a23 23 0 0 1 5.46.85 14.8 14.8 0 0 1 4.13 1.58 12.68 12.68 0 0 1 4.29 4.5c.35.6.66 1.21 1 1.83 2.46 4.64 3.94 11.05 5.58 19.21H69.6v-4.38Z"/></svg>