<svg xmlns="http://www.w3.org/2000/svg" version="1.1" width="60" height="60" viewBox="0 0 60 60"><path d="M30 49.6c5.8 0 10.5 1.5 10.5 3.3 0 1.8-4.7 3.3-10.5 3.3s-10.5-1.5-10.5-3.3c0-1.9 4.7-3.3 10.5-3.3M7 19.9c.3 0 .6 0 .8-.1l9.6 32.5c1.1 3.6 6.3 6.4 12.7 6.4 6.4 0 11.6-2.8 12.7-6.4l9.6-32.5c.2.1.5.1.7.1 1.9 0 3.4-1.5 3.4-3.4s-1.5-3.4-3.4-3.4a3.37 3.37 0 0 0-1.5 6.4L40.5 43.3l1.8-32h.1c1.9 0 3.4-1.5 3.4-3.4s-1.5-3.4-3.4-3.4C40.5 4.6 39 6.1 39 8c0 1.5 1 2.8 2.4 3.2L34 42.5 30.5 8a3.37 3.37 0 0 0-.5-6.7 3.37 3.37 0 0 0-.5 6.7L26 42.4l-7.4-31.2c1.4-.4 2.5-1.7 2.5-3.2 0-1.9-1.5-3.4-3.4-3.4S14.3 6.1 14.3 8s1.5 3.4 3.4 3.4h.1l1.8 32L8.5 19.5c1.1-.6 1.8-1.7 1.8-3 0-1.9-1.5-3.4-3.4-3.4-1.8 0-3.4 1.5-3.4 3.4.1 1.9 1.6 3.4 3.5 3.4" fill="#97741f" /><style>@media (prefers-color-scheme: light) { :root { filter: none; } }
</style></svg>